<?xml version="1.0" encoding="utf-8"?>
<!-- Generator: Adobe Illustrator 25.4.1, SVG Export Plug-In . SVG Version: 6.00 Build 0)  -->
<svg version="1.1" id="Calque_1" xmlns="http://www.w3.org/2000/svg" xmlns:xlink="http://www.w3.org/1999/xlink" x="0px" y="0px"
	 viewBox="0 0 375 174" style="enable-background:new 0 0 375 174;" xml:space="preserve">
<style type="text/css">
	.st0{fill:#F9BC0A;}
	.st1{fill:#EC9CAC;}
</style>
<g>
	<path class="st0" d="M86,93.5c0,1.8,1.6,3.2,3.6,3.2l6.3-0.1c1.9,0,3.5-1.5,3.5-3.3c0-1.8-1.6-3.2-3.6-3.2l-6.3,0.1
		C87.6,90.2,86,91.7,86,93.5z M95.9,92.9c0.3,0,0.6,0.2,0.6,0.5c0,0.3-0.2,0.5-0.5,0.5L89.6,94c-0.3,0-0.6-0.2-0.6-0.5
		c0-0.3,0.2-0.5,0.5-0.5L95.9,92.9z"/>
	<path class="st0" d="M112,81.4l-0.1-5.8c0-1.8-1.6-3.2-3.6-3.2c-1.9,0-3.5,1.5-3.5,3.3l0.1,5.8c0,1.8,1.6,3.2,3.6,3.2
		C110.5,84.7,112,83.2,112,81.4z M107.9,81.5l-0.1-5.8c0-0.3,0.2-0.5,0.5-0.5c0.3,0,0.6,0.2,0.6,0.5l0.1,5.8c0,0.3-0.2,0.5-0.5,0.5
		C108.2,82,107.9,81.7,107.9,81.5z"/>
	<path class="st0" d="M117.9,93.2c0,1.8,1.6,3.2,3.6,3.2l6.3-0.1c1.9,0,3.5-1.5,3.5-3.3c0-1.8-1.6-3.2-3.6-3.2l-6.3,0.1
		C119.4,89.9,117.9,91.4,117.9,93.2z M127.7,92.6c0.3,0,0.6,0.2,0.6,0.5c0,0.3-0.2,0.5-0.5,0.5l-6.3,0.1c-0.3,0-0.6-0.2-0.6-0.5
		c0-0.3,0.2-0.5,0.5-0.5L127.7,92.6z"/>
	<path class="st0" d="M105.3,110.9c0,1.8,1.6,3.2,3.6,3.2c1.9,0,3.5-1.5,3.5-3.3l-0.1-5.8c0-1.8-1.6-3.2-3.6-3.2
		c-1.9,0-3.5,1.5-3.5,3.3L105.3,110.9z M108.8,104.6c0.3,0,0.6,0.2,0.6,0.5l0.1,5.8c0,0.3-0.2,0.5-0.5,0.5c-0.3,0-0.6-0.2-0.6-0.5
		l-0.1-5.8C108.2,104.8,108.5,104.6,108.8,104.6z"/>
	<path class="st0" d="M124.4,81.3c-1.1,0.3-2.3,0-3.1-0.7c-0.8-0.8-1.2-1.8-0.9-2.9l6.5-23.3c0.2-0.7-0.2-1.4-1-1.6
		c-2.3-0.7-4.8-0.5-7,0.5c-2.3,1.1-5.3,0.7-7.4-1c-3.9-3.1-9.6-2.9-13.1,0.6c-1.9,1.9-4.8,3-7.9,3.1c-2.5-0.6-5.2-0.1-7.4,1.2
		c-2.2,1.4-3.7,3.6-4.1,6c-0.4,2.5-2.3,4.4-5,5c-2.6,0.6-4.9,2.2-6.2,4.3c-1.3,2.2-1.5,4.8-0.6,7.1c0.9,2.3,0.1,4.8-2.1,6.7
		c-1.9,1.6-3,4-3.1,6.4c-0.1,2.4,1.1,4.8,3,6.4c2,1.7,2.6,4.3,1.7,6.5c-1.1,2.4-0.9,5.1,0.4,7.4c1.3,2.3,3.7,3.9,6.5,4.4
		c2.4,0.4,4.1,2.5,4.1,5c0.3,2.5,1.7,4.7,3.9,6.2c2.2,1.4,4.9,2,7.6,1.4c2.6-0.5,5.3,0.5,6.8,2.5c1.5,2.1,3.9,3.4,6.5,3.8
		c2.7,0.3,5.4-0.4,7.4-2c2.1-1.6,4.9-1.9,7.3-0.7c2.4,1.2,5.2,1.4,7.7,0.5c2.5-0.9,4.6-2.7,5.6-5c1-2.2,3.4-3.6,6.4-3.7
		c2.6,0,5-1.1,6.8-2.8c1.8-1.8,2.7-4.1,2.5-6.5c-0.2-2.7,1.1-5.1,3.4-6.2c2.4-1.1,4.2-3.1,4.9-5.6c0.7-2.4,0.3-5-1.2-7.1
		c-0.1-0.1-0.1-0.2-0.2-0.2l-0.3-0.3c-1.6-1.5-1.6-3.8,0-5.5c1.6-1.7,2.4-3.8,2.4-5.9c0-0.5-0.1-0.9-0.1-1.4
		c-0.5-2.6-2.2-4.9-4.7-6.2c-0.9-0.5-1.6-1.1-2.2-1.9c-0.4-0.5-1-0.7-1.6-0.5L124.4,81.3z M148.9,80.4c1.7,0.9,2.9,2.4,3.2,4.2
		c0.3,1.8-0.2,3.6-1.6,5c-1.3,1.4-2,3.1-1.9,4.7c0,1.7,0.7,3.3,2.1,4.6l0.2,0.2c0.9,1.4,1.2,3.1,0.8,4.7c-0.5,1.7-1.7,3-3.4,3.8
		c-3.4,1.6-5.3,5-5.1,8.8c0.1,1.7-0.5,3.2-1.7,4.5c-1.2,1.2-2.9,1.9-4.7,2c-4.1,0.1-7.7,2.2-9.1,5.4c-0.7,1.6-2.1,2.8-3.8,3.4
		c-1.7,0.6-3.7,0.5-5.3-0.4c-3.4-1.7-7.6-1.3-10.6,1c-1.4,1.1-3.3,1.6-5.1,1.4c-1.8-0.2-3.5-1.2-4.5-2.6c-2.2-3-6.1-4.4-9.9-3.7
		c-1.8,0.4-3.7,0-5.2-1c-1.5-1-2.5-2.5-2.7-4.1c0-3.7-2.8-6.8-6.5-7.5c-1.9-0.4-3.5-1.5-4.5-3.1c-0.9-1.6-1-3.4-0.3-5.1
		c1.4-3.3,0.5-7.1-2.4-9.6C65.7,96,65,94.5,65,92.8c0,0,0-0.1,0-0.1c0-1.7,0.8-3.3,2.1-4.4c3-2.6,4.2-6.3,2.9-9.6
		c-0.6-1.6-0.5-3.4,0.4-4.9c0.9-1.5,2.4-2.6,4.2-3c3.8-0.8,6.6-3.7,7.2-7.3c0.3-1.7,1.3-3.2,2.8-4.1c1.5-0.9,3.4-1.2,5.2-0.8
		c0.1,0,0.3,0,0.4,0c4,0,7.7-1.5,10.2-4c2.4-2.4,6.4-2.6,9-0.4c3,2.4,7.2,3,10.7,1.4c1.1-0.5,2.3-0.7,3.5-0.6L117.5,77
		c-0.6,2,0.1,4.1,1.7,5.5c1.6,1.4,3.8,2,6,1.4l21.1-5.5C147,79.3,147.9,79.9,148.9,80.4L148.9,80.4z"/>
	<path class="st0" d="M139.5,37.6c-2.3,0.6-4,2.2-4.6,4.4l-1.3,4.5c0,0,0,0,0,0l-6.7,24.2c-0.4,1.3,0,2.5,1,3.5
		c1,0.9,2.4,1.2,3.7,0.9l30.9-8c2.3-0.6,4.1-2.2,4.7-4.4c0.1-0.5,0.2-1.1,0.2-1.6c0-1.6-0.7-3.1-2-4.3L146,39.2
		C144.2,37.6,141.8,37,139.5,37.6L139.5,37.6z M130,72.3c0,0-0.1-0.1-0.1-0.2c0,0,0,0,0-0.1c0-0.1-0.1-0.2-0.1-0.3
		c0-0.1,0-0.2,0-0.3l6.5-23.4c0.2,0,0.3,0,0.5,0c2.9,0,5.5,1.8,6.3,4.4c0.7,3.6,3.9,6.3,7.6,6.5c2,0.1,3.8,1,4.9,2.4
		c1,1.3,1.5,2.9,1.3,4.4l-26,6.7C130.4,72.6,130.1,72.4,130,72.3L130,72.3z M143.9,41.1l19.5,17.7c0.9,0.9,1.3,2.1,1,3.3
		c-0.3,1.2-1.3,2.1-2.6,2.4l-1.9,0.5c0,0,0-0.1,0-0.1c0-1.9-0.7-3.7-1.9-5.2c-1.7-2.1-4.3-3.4-7.2-3.5c-2.4-0.1-4.4-1.9-4.9-4.2
		c0,0,0-0.1,0-0.1c-1.1-3.8-4.8-6.4-8.9-6.5l0.7-2.7c0.3-1.2,1.3-2.1,2.6-2.4C141.6,40,142.9,40.3,143.9,41.1L143.9,41.1z"/>
	<path class="st0" d="M109.8,63c0-0.8-0.7-1.4-1.5-1.4c-0.7,0-1.4,0-2.1,0.1c-0.8,0.1-1.4,0.7-1.4,1.5c0.1,0.8,0.8,1.3,1.6,1.3
		c0.6,0,1.3-0.1,1.9-0.1C109.1,64.4,109.8,63.8,109.8,63L109.8,63z"/>
	<path class="st0" d="M94.5,67.5c0.7-0.3,1-1.2,0.6-1.8c-0.4-0.7-1.3-0.9-2-0.6c-11.6,5.5-18.8,16.4-18.7,28.5
		c0.2,17.4,15.7,31.5,34.5,31.3c18.8-0.2,34-14.5,33.8-31.9c0-0.8-0.7-1.4-1.5-1.4c-0.8,0-1.5,0.6-1.5,1.4
		c0.2,15.9-13.7,29-30.9,29.2c-17.2,0.2-31.3-12.6-31.5-28.6C77.3,82.5,83.8,72.6,94.5,67.5L94.5,67.5z"/>
	<path class="st1" d="M213.9,104.5l-3.2-5.4c-0.1-0.2-0.3-0.4-0.5-0.4c-0.1,0-0.2,0-0.3,0.2l-0.2,0.2c-0.2,0.2-0.5,0.2-0.8,0.2h-20
		c-0.4,0-0.6,0.2-0.6,0.6v1.2c0,0.4,0.2,0.6,0.6,0.6h0c2.2,0,2.9,1.6,2.9,3.8V123c0,2.1-0.7,3.7-2.7,3.8h-0.2
		c-0.4,0-0.6,0.2-0.6,0.6v1.2c0,0.4,0.2,0.6,0.6,0.6h12.3c0.4,0,0.6-0.2,0.6-0.6v-1.2c0-0.4-0.2-0.6-0.6-0.6h-0.3
		c-2-0.1-2.7-1.7-2.7-3.8v-8h3.5c2.1,0,3.7,0.7,3.8,2.7v0.2c0,0.4,0.2,0.6,0.6,0.6h1.2c0.4,0,0.6-0.2,0.6-0.6v-9.1
		c0-0.4-0.2-0.6-0.6-0.6h-1.2c-0.4,0-0.6,0.2-0.6,0.6v0.3c-0.1,2-1.7,2.7-3.8,2.7h-3.8v-9.8h5.9c3.2,0,5.7,1.1,7.2,3.7l0.1,0.2
		c0.1,0.2,0.3,0.3,0.5,0.3c0.1,0,0.2,0,0.4-0.1l1.7-0.9c0.2-0.1,0.3-0.3,0.3-0.5C214,104.7,214,104.6,213.9,104.5z M228,99.1
		c-7,1.5-11.8,7.9-11.8,15c0,1.1,0.1,2.2,0.4,3.3c1.6,7.3,7.9,12.4,14.9,12.4c1,0,2-0.1,3-0.3c7-1.5,11.8-7.8,11.8-15
		c0-1.1-0.1-2.2-0.4-3.3c-1.6-7.3-7.9-12.4-14.9-12.4C230,98.7,229,98.8,228,99.1z M228.7,102.5c0.6-0.1,1.3-0.2,1.8-0.2
		c5.3,0,8.2,5.2,9.3,10.2c0.3,1.3,0.5,2.7,0.5,4.1c0,4.3-1.7,8.4-6.6,9.4c-0.7,0.1-1.3,0.2-1.9,0.2c-5.3,0-8.2-5.2-9.2-10.1
		c-0.3-1.4-0.4-2.8-0.4-4.2C222.2,107.6,223.8,103.5,228.7,102.5z M262.5,99.1c-7,1.5-11.8,7.9-11.8,15c0,1.1,0.1,2.2,0.4,3.3
		c1.6,7.3,7.9,12.4,14.9,12.4c1,0,2-0.1,3-0.3c7-1.5,11.8-7.8,11.8-15c0-1.1-0.1-2.2-0.4-3.3c-1.6-7.3-7.9-12.4-14.9-12.4
		C264.5,98.7,263.5,98.8,262.5,99.1z M263.2,102.5c0.6-0.1,1.3-0.2,1.8-0.2c5.3,0,8.2,5.2,9.3,10.2c0.3,1.3,0.5,2.7,0.5,4.1
		c0,4.3-1.7,8.4-6.6,9.4c-0.7,0.1-1.3,0.2-1.9,0.2c-5.3,0-8.2-5.2-9.2-10.1c-0.3-1.4-0.4-2.8-0.4-4.2
		C256.7,107.6,258.3,103.5,263.2,102.5z M296.9,99.2h-12.3c-0.4,0-0.6,0.2-0.6,0.6v1.2c0,0.4,0.2,0.6,0.6,0.6h0
		c2.2,0,2.9,1.6,2.9,3.8V123c0,2.1-0.7,3.7-2.7,3.8h-0.3c-0.4,0-0.6,0.2-0.6,0.6v1.2c0,0.4,0.2,0.6,0.6,0.6H298c10.5,0,15-6.7,15-15
		C313,104.7,306.1,99.2,296.9,99.2z M293.9,122.8v-21.2h1.9c7.1,0,11.1,4.6,11.1,12.6c0,7.8-2.2,12.4-10,12.4
		C294,126.6,293.9,125,293.9,122.8z"/>
	<path class="st0" d="M213.4,56.5l-3.2-5.4c-0.1-0.2-0.3-0.4-0.5-0.4c-0.1,0-0.2,0-0.3,0.2l-0.2,0.2c-0.2,0.2-0.5,0.2-0.8,0.2h-20
		c-0.4,0-0.6,0.2-0.6,0.6V53c0,0.4,0.2,0.6,0.6,0.6h0c2.2,0,2.9,1.6,2.9,3.8V75c0,2.1-0.7,3.7-2.7,3.8h-0.2c-0.4,0-0.6,0.2-0.6,0.6
		v1.2c0,0.4,0.2,0.6,0.6,0.6h12.3c0.4,0,0.6-0.2,0.6-0.6v-1.2c0-0.4-0.2-0.6-0.6-0.6h-0.3c-2-0.1-2.7-1.7-2.7-3.8v-8h3.5
		c2.1,0,3.7,0.7,3.8,2.7V70c0,0.4,0.2,0.6,0.6,0.6h1.2c0.4,0,0.6-0.2,0.6-0.6v-9.1c0-0.4-0.2-0.6-0.6-0.6h-1.2
		c-0.4,0-0.6,0.2-0.6,0.6v0.3c-0.1,2-1.7,2.7-3.8,2.7h-3.8v-9.8h5.9c3.2,0,5.7,1.1,7.2,3.7l0.1,0.2c0.1,0.2,0.3,0.3,0.5,0.3
		c0.1,0,0.2,0,0.4-0.1l1.7-0.9c0.2-0.1,0.3-0.3,0.3-0.5C213.5,56.7,213.5,56.6,213.4,56.5z M227.5,51.1c-7,1.5-11.8,7.9-11.8,15
		c0,1.1,0.1,2.2,0.4,3.3c1.6,7.3,7.9,12.4,14.9,12.4c1,0,2-0.1,3-0.3c7-1.5,11.8-7.8,11.8-15c0-1.1-0.1-2.2-0.4-3.3
		c-1.6-7.3-7.9-12.4-14.9-12.4C229.5,50.7,228.5,50.8,227.5,51.1z M228.2,54.5c0.6-0.1,1.3-0.2,1.8-0.2c5.3,0,8.2,5.2,9.3,10.2
		c0.3,1.3,0.5,2.7,0.5,4.1c0,4.3-1.7,8.4-6.6,9.4c-0.7,0.1-1.3,0.2-1.9,0.2c-5.3,0-8.2-5.2-9.2-10.1c-0.3-1.4-0.4-2.8-0.4-4.2
		C221.7,59.6,223.3,55.5,228.2,54.5z M262,51.1c-7,1.5-11.8,7.9-11.8,15c0,1.1,0.1,2.2,0.4,3.3c1.6,7.3,7.9,12.4,14.9,12.4
		c1,0,2-0.1,3-0.3c7-1.5,11.8-7.8,11.8-15c0-1.1-0.1-2.2-0.4-3.3c-1.6-7.3-7.9-12.4-14.9-12.4C264,50.7,263,50.8,262,51.1z
		 M262.7,54.5c0.6-0.1,1.3-0.2,1.8-0.2c5.3,0,8.2,5.2,9.3,10.2c0.3,1.3,0.5,2.7,0.5,4.1c0,4.3-1.7,8.4-6.6,9.4
		c-0.7,0.1-1.3,0.2-1.9,0.2c-5.3,0-8.2-5.2-9.2-10.1c-0.3-1.4-0.4-2.8-0.4-4.2C256.2,59.6,257.8,55.5,262.7,54.5z M296.4,51.2h-12.3
		c-0.4,0-0.6,0.2-0.6,0.6V53c0,0.4,0.2,0.6,0.6,0.6h0c2.2,0,2.9,1.6,2.9,3.8V75c0,2.1-0.7,3.7-2.7,3.8h-0.3c-0.4,0-0.6,0.2-0.6,0.6
		v1.2c0,0.4,0.2,0.6,0.6,0.6h13.4c10.5,0,15-6.7,15-15C312.5,56.7,305.6,51.2,296.4,51.2z M293.4,74.8V53.6h1.9
		c7.1,0,11.1,4.6,11.1,12.6c0,7.8-2.2,12.4-10,12.4C293.5,78.6,293.4,77,293.4,74.8z"/>
</g>
</svg>
