<?xml version="1.0" encoding="utf-8"?>
<!-- Generator: Adobe Illustrator 26.4.1, SVG Export Plug-In . SVG Version: 6.00 Build 0)  -->
<svg version="1.1" id="Calque_1" xmlns="http://www.w3.org/2000/svg" xmlns:xlink="http://www.w3.org/1999/xlink" x="0px" y="0px"
	 viewBox="0 0 187.1 58.2" style="enable-background:new 0 0 187.1 58.2;" xml:space="preserve">
<style type="text/css">
	.st0{fill:#004439;}
	.st1{fill:#F2B950;}
</style>
<g>
	<path class="st0" d="M0,18l0.3-0.3c0.4-0.4,0.7-0.9,0.9-1.5c0.2-0.6,0.4-1.1,0.5-1.5c0.1-0.4,0.2-1.1,0.4-1.9
		c0.2-0.9,0.3-1.5,0.4-2c0.8-3.4,2-6,3.8-7.9C8,0.9,10.2,0,12.9,0c2.3,0,4.3,0.4,5.9,1.2c0.2,1,0.3,2,0.3,3.1c0,1.7-0.5,3.5-1.6,5.4
		c-1-2.3-2-4-3-5.1c-0.9-1.1-1.9-1.6-3.1-1.6C8.5,2.9,7,6.1,7,12.5v4.2c2.7-0.1,4.7-0.1,6.1-0.2l-1.2,3.2H7V30c0,2,0.1,3.7,0.2,5
		c0.1,1,0.2,1.9,0.6,2.7c0.4,0.7,0.9,1.5,1.6,2.2H8.6c-0.6,0-1.4,0-2.2-0.1c-0.9-0.1-1.5-0.1-1.9-0.1c-0.4,0-1,0-1.8,0.1
		c-0.8,0.1-1.5,0.1-2.1,0.1H0.1c1.1-1.4,1.7-3,1.8-4.9c0.1-1.1,0.1-2.8,0.1-5.1V22c0-1.1-0.1-1.9-0.4-2.4C1.3,19,0.8,18.5,0,18z"/>
	<path class="st0" d="M13.5,28.2c0-3.5,1.2-6.4,3.6-8.9c2.4-2.5,5.4-3.7,8.8-3.7c3.6,0,6.6,1.2,8.9,3.6c2.4,2.4,3.6,5.4,3.6,8.9
		c0,2.3-0.5,4.4-1.6,6.3c-1.1,1.9-2.5,3.4-4.4,4.6c-1.9,1.1-3.9,1.7-6.2,1.7c-3.7,0-6.7-1.2-9.1-3.6C14.7,34.7,13.5,31.7,13.5,28.2z
		 M19.2,27.7c0,3.2,0.6,5.7,1.9,7.5c1.3,1.8,3,2.7,5.2,2.7c1.9,0,3.5-0.8,4.7-2.5c1.2-1.7,1.8-4,1.8-6.9c0-3-0.7-5.5-2-7.3
		c-1.3-1.9-3-2.8-4.9-2.8c-1.9,0-3.5,0.8-4.8,2.4C19.8,22.4,19.2,24.7,19.2,27.7z"/>
	<path class="st0" d="M40.4,28.2c0-3.5,1.2-6.4,3.6-8.9c2.4-2.5,5.4-3.7,8.8-3.7c3.6,0,6.6,1.2,8.9,3.6c2.4,2.4,3.6,5.4,3.6,8.9
		c0,2.3-0.5,4.4-1.6,6.3c-1.1,1.9-2.5,3.4-4.4,4.6c-1.9,1.1-3.9,1.7-6.2,1.7c-3.7,0-6.7-1.2-9.1-3.6C41.6,34.7,40.4,31.7,40.4,28.2z
		 M46.1,27.7c0,3.2,0.6,5.7,1.9,7.5c1.3,1.8,3,2.7,5.2,2.7c1.9,0,3.5-0.8,4.7-2.5c1.2-1.7,1.8-4,1.8-6.9c0-3-0.7-5.5-2-7.3
		c-1.3-1.9-3-2.8-4.9-2.8c-1.9,0-3.5,0.8-4.8,2.4C46.7,22.4,46.1,24.7,46.1,27.7z"/>
	<path class="st0" d="M67.3,28.5c0-1.9,0.3-3.7,0.9-5.3c0.6-1.6,1.5-3,2.5-4.1c1.1-1.1,2.3-1.9,3.6-2.6c1.4-0.6,2.8-0.9,4.3-0.9
		c2.3,0,4.2,0.6,5.8,1.7v-4.8c0-2.2-0.1-3.8-0.2-4.9c-0.1-1-0.3-1.8-0.6-2.4C83.5,4.6,83,4,82.2,3.4c2.8-1.1,5.3-2.3,7.6-3.4
		c-0.2,3.7-0.3,6.9-0.3,9.7v18.9c0,1.9,0.1,3.5,0.2,4.7c0.1,1,0.3,1.8,0.6,2.4c0.3,0.5,0.8,1.1,1.5,1.7c-2.9,1.2-5.2,2.2-6.9,3.1
		l-0.1-4.7c-0.8,1.5-1.8,2.7-3.1,3.7s-2.6,1.4-4.1,1.4c-2.9,0-5.3-1.1-7.3-3.3C68.3,35.2,67.3,32.2,67.3,28.5z M72.5,27.1
		c0,3.1,0.6,5.5,1.9,7.2c1.3,1.7,2.9,2.6,4.9,2.6c1.6,0,2.9-0.6,3.8-1.7c0.9-1.1,1.4-2.7,1.4-4.6v-5.2c0-1.3-0.2-2.3-0.5-3.3
		c-0.3-0.9-0.8-1.7-1.4-2.2c-0.6-0.5-1.2-0.9-1.8-1.2c-0.7-0.3-1.4-0.4-2.2-0.4c-1.7,0-3.1,0.8-4.3,2.3
		C73.1,22.1,72.5,24.2,72.5,27.1z"/>
	<path class="st1" d="M95.3,18l0.3-0.3c0.4-0.4,0.7-0.9,0.9-1.5c0.2-0.6,0.4-1.1,0.5-1.5c0.1-0.4,0.2-1.1,0.4-1.9
		c0.2-0.9,0.3-1.5,0.4-2c0.8-3.4,2-6,3.8-7.9c1.8-1.9,4-2.8,6.7-2.8c2.3,0,4.3,0.4,5.9,1.2c0.2,1,0.3,2,0.3,3.1
		c0,1.7-0.5,3.5-1.6,5.4c-1-2.3-2-4-3-5.1c-0.9-1.1-1.9-1.6-3.1-1.6c-2.9,0-4.4,3.2-4.4,9.5v4.2c2.7-0.1,4.7-0.1,6.1-0.2l-1.2,3.2
		h-4.9V30c0,2,0.1,3.7,0.2,5c0.1,1,0.2,1.9,0.6,2.7c0.4,0.7,0.9,1.5,1.6,2.2h-0.7c-0.6,0-1.4,0-2.2-0.1c-0.9-0.1-1.5-0.1-1.9-0.1
		c-0.4,0-1,0-1.8,0.1c-0.8,0.1-1.5,0.1-2.1,0.1h-0.6c1.1-1.4,1.7-3,1.8-4.9c0.1-1.1,0.1-2.8,0.1-5.1V22c0-1.1-0.1-1.9-0.4-2.4
		C96.6,19,96,18.5,95.3,18z"/>
	<path class="st1" d="M108.8,28.2c0-3.5,1.2-6.4,3.6-8.9c2.4-2.5,5.4-3.7,8.8-3.7c3.6,0,6.6,1.2,8.9,3.6c2.4,2.4,3.6,5.4,3.6,8.9
		c0,2.3-0.5,4.4-1.6,6.3c-1.1,1.9-2.5,3.4-4.4,4.6c-1.9,1.1-3.9,1.7-6.2,1.7c-3.7,0-6.7-1.2-9.1-3.6C110,34.7,108.8,31.7,108.8,28.2
		z M114.5,27.7c0,3.2,0.6,5.7,1.9,7.5c1.3,1.8,3,2.7,5.2,2.7c1.9,0,3.5-0.8,4.7-2.5c1.2-1.7,1.8-4,1.8-6.9c0-3-0.7-5.5-2-7.3
		c-1.3-1.9-3-2.8-4.9-2.8c-1.9,0-3.5,0.8-4.8,2.4C115.1,22.4,114.5,24.7,114.5,27.7z"/>
	<path class="st1" d="M135.7,28.2c0-3.5,1.2-6.4,3.6-8.9c2.4-2.5,5.4-3.7,8.8-3.7c3.6,0,6.6,1.2,8.9,3.6c2.4,2.4,3.6,5.4,3.6,8.9
		c0,2.3-0.5,4.4-1.6,6.3c-1.1,1.9-2.5,3.4-4.4,4.6c-1.9,1.1-3.9,1.7-6.2,1.7c-3.7,0-6.7-1.2-9.1-3.6
		C136.9,34.7,135.7,31.7,135.7,28.2z M141.4,27.7c0,3.2,0.6,5.7,1.9,7.5c1.3,1.8,3,2.7,5.2,2.7c1.9,0,3.5-0.8,4.7-2.5
		c1.2-1.7,1.8-4,1.8-6.9c0-3-0.7-5.5-2-7.3c-1.3-1.9-3-2.8-4.9-2.8c-1.9,0-3.5,0.8-4.8,2.4C142,22.4,141.4,24.7,141.4,27.7z"/>
	<path class="st1" d="M162.6,28.5c0-1.9,0.3-3.7,0.9-5.3c0.6-1.6,1.5-3,2.5-4.1c1.1-1.1,2.3-1.9,3.6-2.6c1.4-0.6,2.8-0.9,4.3-0.9
		c2.3,0,4.2,0.6,5.8,1.7v-4.8c0-2.2-0.1-3.8-0.2-4.9c-0.1-1-0.3-1.8-0.6-2.4c-0.3-0.6-0.8-1.1-1.5-1.8c2.8-1.1,5.3-2.3,7.6-3.4
		c-0.2,3.7-0.3,6.9-0.3,9.7v18.9c0,1.9,0.1,3.5,0.2,4.7c0.1,1,0.3,1.8,0.6,2.4c0.3,0.5,0.8,1.1,1.5,1.7c-2.9,1.2-5.2,2.2-6.9,3.1
		l-0.1-4.7c-0.8,1.5-1.8,2.7-3.1,3.7s-2.6,1.4-4.1,1.4c-2.9,0-5.3-1.1-7.3-3.3C163.6,35.2,162.6,32.2,162.6,28.5z M167.8,27.1
		c0,3.1,0.6,5.5,1.9,7.2c1.3,1.7,2.9,2.6,4.9,2.6c1.6,0,2.9-0.6,3.8-1.7c0.9-1.1,1.4-2.7,1.4-4.6v-5.2c0-1.3-0.2-2.3-0.5-3.3
		c-0.3-0.9-0.8-1.7-1.4-2.2c-0.6-0.5-1.2-0.9-1.8-1.2c-0.7-0.3-1.4-0.4-2.2-0.4c-1.7,0-3.1,0.8-4.3,2.3
		C168.4,22.1,167.8,24.2,167.8,27.1z"/>
	<g>
		<path class="st1" d="M134.7,58.2c-9.8,0-18.9-3.8-25.8-10.8l2.1-2.1c6.2,6.4,14.6,9.9,23.6,9.9s17.4-3.5,23.6-9.9l2.1,2.1
			C153.6,54.3,144.5,58.2,134.7,58.2z"/>
	</g>
</g>
</svg>
